<svg xmlns="http://www.w3.org/2000/svg" viewBox="0 0 400 120" fill="none">
  <defs>
    <linearGradient id="bg-grad" x1="0" y1="0" x2="120" y2="120" gradientUnits="userSpaceOnUse">
      <stop offset="0%" stop-color="#6366f1"/>
      <stop offset="100%" stop-color="#a855f7"/>
    </linearGradient>
    <linearGradient id="ghost-grad" x1="40" y1="20" x2="80" y2="100" gradientUnits="userSpaceOnUse">
      <stop offset="0%" stop-color="#ffffff"/>
      <stop offset="100%" stop-color="#e0e7ff"/>
    </linearGradient>
  </defs>
  <!-- Icon background -->
  <rect width="120" height="120" rx="28" fill="url(#bg-grad)"/>
  <!-- Ghost body -->
  <path d="M60 22c-18.8 0-34 14.3-34 32v30c0 2 1.2 3.8 3 4.6 1.8.8 4 .4 5.4-1l5.6-5.6 5.6 5.6c1.6 1.6 4.2 1.6 5.8 0L57 82l5.6 5.6c1.6 1.6 4.2 1.6 5.8 0L74 82l5.6 5.6c1.4 1.4 3.6 1.8 5.4 1 1.8-.8 3-2.6 3-4.6V54c0-17.7-15.2-32-34-32z" fill="url(#ghost-grad)" opacity="0.95"/>
  <!-- Eyes -->
  <ellipse cx="47" cy="55" rx="6" ry="7" fill="#6366f1"/>
  <ellipse cx="73" cy="55" rx="6" ry="7" fill="#6366f1"/>
  <!-- Eye glints -->
  <ellipse cx="49" cy="52" rx="2.5" ry="2.5" fill="#fff" opacity="0.9"/>
  <ellipse cx="75" cy="52" rx="2.5" ry="2.5" fill="#fff" opacity="0.9"/>
  <!-- Mouth -->
  <path d="M53 68c2 2.5 5 4 7 4s5-1.5 7-4" stroke="#6366f1" stroke-width="2.2" stroke-linecap="round" fill="none" opacity="0.5"/>
  <!-- Text: Ghost Office -->
  <text x="140" y="62" font-family="Inter, -apple-system, BlinkMacSystemFont, 'Segoe UI', sans-serif" font-weight="800" font-size="42" fill="#1e293b">Ghost</text>
  <text x="140" y="100" font-family="Inter, -apple-system, BlinkMacSystemFont, 'Segoe UI', sans-serif" font-weight="800" font-size="42" fill="#6366f1">Office</text>
</svg>
